HIERARCHY
ROOT root
{
	OFFSET	0	13.1	24.9
	CHANNELS 6  Xposition Yposition Zposition Xrotation Yrotation Zrotation
	JOINT spine_1
	{
		OFFSET	0	9.99999	0
		CHANNELS 3  Xrotation Yrotation Zrotation
		JOINT spine_2
		{
			OFFSET	0	112	-10
			CHANNELS 3  Xrotation Yrotation Zrotation
			JOINT spine_3
			{
				OFFSET	0	206.5	19.3
				CHANNELS 3  Xrotation Yrotation Zrotation
				JOINT spine_4
				{
					OFFSET	0	110.4	14.6
					CHANNELS 3  Xrotation Yrotation Zrotation
					JOINT neck_1
					{
						OFFSET	0	71.8	-50.3
						CHANNELS 3  Xrotation Yrotation Zrotation
						JOINT neck_2
						{
							OFFSET	0	86.2	-25.8
							CHANNELS 3  Xrotation Yrotation Zrotation
							JOINT head_ee
							{
								OFFSET	0	179.8	-8.7
								CHANNELS 3  Xrotation Yrotation Zrotation
								End Site
								{
									OFFSET	1	0	0
								}
							}
						}
					}
					JOINT left_clavicle
					{
						OFFSET	-43.2	22.4	-70.8
						CHANNELS 3  Xrotation Yrotation Zrotation
						JOINT left_shoulder
						{
							OFFSET	-93.9	-5.79999	48.7
							CHANNELS 3  Xrotation Yrotation Zrotation
							JOINT left_elbow
							{
								OFFSET	-291.4	-30.8	15.2
								CHANNELS 3  Xrotation Yrotation Zrotation
								JOINT left_lowarm_twist
								{
									OFFSET	-110.7	-3.89999	13.6
									CHANNELS 3  Xrotation Yrotation Zrotation
									JOINT left_hand
									{
										OFFSET	-110.7	-3.89999	13.6
										CHANNELS 3  Xrotation Yrotation Zrotation
										JOINT left_ee
										{
											OFFSET	-80.8	-5.10001	12.1
											CHANNELS 3  Xrotation Yrotation Zrotation
											End Site
											{
												OFFSET	1	0	0
											}
										}
									}
								}
							}
						}
					}
					JOINT right_clavicle
					{
						OFFSET	43.2	22.4	-70.8
						CHANNELS 3  Xrotation Yrotation Zrotation
						JOINT right_shoulder
						{
							OFFSET	93.9	-5.79999	48.7
							CHANNELS 3  Xrotation Yrotation Zrotation
							JOINT right_elbow
							{
								OFFSET	291.4	-30.8	15.2
								CHANNELS 3  Xrotation Yrotation Zrotation
								JOINT right_lowarm_twist
								{
									OFFSET	110.7	-3.89999	13.6
									CHANNELS 3  Xrotation Yrotation Zrotation
									JOINT right_hand
									{
										OFFSET	110.7	-3.89999	13.6
										CHANNELS 3  Xrotation Yrotation Zrotation
										JOINT right_ee
										{
											OFFSET	80.8	-5.10001	12.1
											CHANNELS 3  Xrotation Yrotation Zrotation
											End Site
											{
												OFFSET	1	0	0
											}
										}
									}
								}
							}
						}
					}
				}
			}
		}
	}
	JOINT left_hip
	{
		OFFSET	-82.8	-127.5	0.300001
		CHANNELS 3  Xrotation Yrotation Zrotation
		JOINT left_knee
		{
			OFFSET	-28.2	-396.7	2.2
			CHANNELS 3  Xrotation Yrotation Zrotation
			JOINT left_ankle
			{
				OFFSET	-11.7	-411.3	35.4
				CHANNELS 3  Xrotation Yrotation Zrotation
				JOINT left_toes
				{
					OFFSET	0	-60	-88.6
					CHANNELS 3  Xrotation Yrotation Zrotation
					JOINT left_foot_ee
					{
						OFFSET	-22.5	-16.5	-42.2
						CHANNELS 3  Xrotation Yrotation Zrotation
						End Site
						{
							OFFSET	1	0	0
						}
					}
				}
			}
		}
	}
	JOINT right_hip
	{
		OFFSET	82.8	-127.5	0.300001
		CHANNELS 3  Xrotation Yrotation Zrotation
		JOINT right_knee
		{
			OFFSET	28.2	-396.7	2.2
			CHANNELS 3  Xrotation Yrotation Zrotation
			JOINT right_ankle
			{
				OFFSET	11.7	-411.3	35.4
				CHANNELS 3  Xrotation Yrotation Zrotation
				JOINT right_toes
				{
					OFFSET	0	-60	-88.6
					CHANNELS 3  Xrotation Yrotation Zrotation
					JOINT right_foot_ee
					{
						OFFSET	22.5	-16.5	-42.2
						CHANNELS 3  Xrotation Yrotation Zrotation
						End Site
						{
							OFFSET	1	0	0
						}
					}
				}
			}
		}
	}
}
MOTION
Frames: 12
Frame Time: 0.02
2986.25 729.652 -1476.72 90.0 82.4908 -90.0 -5.99662 0.0552756 0.252854 -5.99659 0.0390738 0.255859 -5.99633 -0.0424785 0.255316 -5.99642 -0.00162316 0.25882 -6.34613 10.7932 -8.51206 -6.00555 26.1682 -6.55975 -0.0 0.0 -0.0 0.315907 21.874 2.98679 -0.855372 -15.2036 71.2873 0.853839 -22.9265 0.173149 -33.2877 -2.26723 3.5381 1.36539 16.4206 15.2521 -0.0 0.0 -0.0 13.0323 25.7075 -25.786 -4.23374 15.1054 -52.1048 1.38847 34.5185 -0.431395 4.66884 -0.140943 0.579544 2.63878 8.69041 -14.2685 0.0 0.0 0.0 -15.7368 12.5906 -10.3749 -39.0763 -0.409049 5.86855 26.437 -20.0623 -3.9059 -0.729484 0.0 0.0 -0.0 0.0 -0.0 -0.0250702 14.0145 -10.0195 -13.2603 -0.315042 -2.00605 25.8631 -7.54237 3.43059 -8.71268 0.0 0.0 0.0 0.0 0.0 
2975.1 727.167 -1479.57 90.0 81.216 -90.0 -6.53013 -0.128578 0.261904 -6.5301 -0.144983 0.253191 -6.53075 -0.218384 0.19348 -6.53076 -0.185087 0.225541 -6.95189 11.2292 -9.44784 -6.59947 27.6286 -7.2727 -0.0 0.0 -0.0 0.190091 21.6941 2.78997 0.125141 -15.2944 71.4087 0.848471 -22.7972 0.171063 -32.8633 -2.2261 3.50242 1.38055 15.8975 15.1741 -0.0 0.0 -0.0 13.2258 25.539 -26.2536 -4.98021 14.9917 -52.4549 1.41016 34.9344 -0.443755 3.39307 -0.107131 0.420088 2.59893 8.50223 -14.0743 0.0 0.0 0.0 -13.2322 12.1621 -12.0866 -46.6645 -0.944237 6.90479 25.8463 -19.6862 -3.82035 1.25836 -0.0 -0.0 -0.0 0.0 -0.0 -2.0865 14.5297 -10.3373 -12.6663 -0.310922 -1.91501 27.0406 -7.15433 3.56385 -7.90086 0.0 0.0 0.0 0.0 0.0 
2976.12 727.313 -1485.66 90.0 80.6781 -90.0 -6.80456 -0.0709618 0.264425 -6.80452 -0.087644 0.259373 -6.80489 -0.167077 0.21689 -6.80493 -0.130727 0.240554 -7.36535 10.446 -9.65166 -7.04313 26.3059 -7.52838 -0.0 0.0 -0.0 0.0763566 20.8073 2.5322 2.74039 -15.6156 72.2655 0.860148 -23.0783 0.175614 -32.5713 -2.19797 3.47771 1.37153 15.5271 14.9914 -0.0 0.0 -0.0 13.2703 25.0274 -26.415 -5.48756 15.3124 -52.5175 1.41292 34.9869 -0.445335 1.89501 -0.0629033 0.23385 2.26198 5.23833 -13.1437 0.0 0.0 0.0 -11.8388 11.9034 -13.0853 -49.603 -1.18777 7.28595 25.4152 -21.8129 -3.83925 0.977558 -0.0 -0.0 -0.0 0.0 -0.0 -3.1766 14.8194 -10.7349 -10.6435 -0.289816 -1.60537 26.404 -7.2453 3.49199 -8.8196 0.0 0.0 0.0 0.0 0.0 
2972.47 724.305 -1488.53 90.0 80.717 -90.0 -6.86076 -0.161624 0.212712 -6.86075 -0.174832 0.201997 -6.86141 -0.231057 0.134095 -6.86138 -0.20698 0.168903 -5.12715 10.5243 -10.0011 -4.56646 26.7991 -8.48851 -0.0 0.0 -0.0 -0.129143 20.579 2.20916 5.36228 -15.743 72.9221 0.840057 -22.594 0.167817 -31.9216 -2.13582 3.4222 1.35536 14.7594 14.6261 -0.0 0.0 -0.0 13.4488 24.8712 -26.8477 -6.10945 15.0634 -51.9283 1.36199 34.0053 -0.416488 2.10538 -0.0694081 0.259934 2.29658 5.39319 -13.3178 0.0 0.0 0.0 -9.36828 13.3379 -14.1738 -51.969 -1.39794 7.58362 24.6268 -20.066 -3.67944 2.62084 -0.0 -0.0 -0.0 0.0 -0.0 -5.21088 15.7893 -10.9257 -7.94288 -0.244624 -1.19347 26.3257 -4.6926 3.48459 -8.31683 0.0 0.0 0.0 0.0 0.0 
2971.38 724.295 -1487.64 90.0 80.238 -90.0 -6.94636 -0.202939 0.258069 -6.94635 -0.21895 0.244632 -6.94736 -0.28689 0.159619 -6.9473 -0.25808 0.202925 -2.82004 9.37208 -10.8963 -2.01406 25.4664 -10.2402 -0.0 0.0 -0.0 -0.0721307 19.9875 2.22469 8.05284 -15.7566 73.6328 0.801563 -21.6565 0.153318 -31.466 -2.09262 3.38285 1.3745 14.3225 14.5998 -0.0 0.0 -0.0 13.5088 24.8912 -26.9854 -7.27498 14.9816 -52.1399 1.34891 33.7495 -0.409197 0.366208 -0.0127592 0.0450295 2.05387 3.42264 -12.4656 0.0 0.0 0.0 -6.24764 13.5379 -14.9408 -56.4551 -1.82961 8.12346 23.7936 -20.0443 -3.57206 2.58798 -0.0 -0.0 -0.0 0.0 -0.0 -6.39667 16.4652 -10.2539 -6.96684 -0.223521 -1.04518 26.8527 -2.78199 3.54976 -8.44173 0.0 0.0 0.0 0.0 0.0 
2966.65 724.538 -1485.78 90.0 80.0289 -90.0 -7.07077 -0.130803 0.288029 -7.07074 -0.148866 0.279122 -7.07147 -0.232396 0.214621 -7.07148 -0.195584 0.24863 0.0897393 8.67137 -10.8386 1.08493 24.2533 -11.0194 -0.0 0.0 -0.0 -0.0509023 19.3615 2.18484 10.4339 -16.1935 74.4045 0.788397 -21.333 0.148494 -31.1476 -2.06262 3.35516 1.27976 13.8154 13.8113 -0.0 0.0 -0.0 13.4944 25.0062 -26.9387 -8.66523 14.8009 -51.9816 1.30505 32.8805 -0.385109 -1.02726 0.037326 -0.125875 2.04196 0.997476 -13.3753 0.0 0.0 0.0 -4.69456 13.8931 -14.9789 -58.9105 -2.0835 8.40432 23.2417 -19.8818 -3.49559 1.58833 -0.0 -0.0 -0.0 0.0 -0.0 -6.81227 14.636 -10.1633 -6.24902 -0.206389 -0.936359 27.0947 -3.87031 3.57324 -9.44091 0.0 0.0 0.0 0.0 0.0 
2963.93 722.386 -1487.51 90.0 79.4823 -90.0 -7.23971 -0.223824 0.298668 -7.23969 -0.242376 0.28382 -7.24098 -0.322804 0.187343 -7.24091 -0.289165 0.235973 -1.23038 8.95468 -10.9758 -0.305379 24.8335 -10.7997 -0.0 0.0 -0.0 -0.219155 18.8342 1.87259 13.2581 -16.1172 74.919 0.767066 -20.8058 0.140825 -31.1636 -2.06412 3.35656 1.2891 13.8164 13.8721 -0.0 0.0 -0.0 13.4876 24.1933 -27.0118 -9.43922 14.4988 -52.7534 1.28951 32.5683 -0.376705 -1.66682 0.0617035 -0.203901 1.58516 0.988704 -10.2514 0.0 0.0 0.0 -3.32994 14.1423 -15.6612 -60.4338 -2.24701 8.57307 22.0233 -19.7263 -3.33116 1.99995 -0.0 -0.0 -0.0 0.0 -0.0 -8.17446 16.1743 -10.1059 -4.86127 -0.169406 -0.726603 26.782 -3.90952 3.538 -9.55906 0.0 0.0 0.0 0.0 0.0 
2962.2 723.094 -1488.62 90.0 79.0546 -90.0 -7.42714 -0.238777 0.275557 -7.42713 -0.255827 0.259805 -7.4284 -0.328049 0.159154 -7.42831 -0.298796 0.208966 1.13362 8.06113 -11.2888 2.21304 23.5687 -11.8395 -0.0 0.0 -0.0 -0.0649451 17.8822 1.99465 16.3083 -16.1852 75.6688 0.767528 -20.8173 0.140989 -30.7807 -2.02823 3.32304 1.33082 13.4871 14.0272 -0.0 0.0 -0.0 13.5429 24.4966 -27.1084 -10.3725 13.6895 -53.0158 1.25619 31.8919 -0.358938 -2.7444 0.104745 -0.334746 1.62287 -0.058494 -10.9305 0.0 0.0 0.0 -2.34077 14.5835 -15.5517 -62.0131 -2.42124 8.74342 22.3832 -19.678 -3.37724 2.38599 -0.0 -0.0 -0.0 0.0 -0.0 -9.34901 16.3309 -10.168 -4.33895 -0.154171 -0.647892 27.1972 -1.96196 3.59202 -8.62135 0.0 0.0 0.0 0.0 0.0 
2956.57 724.814 -1483.82 80.9718 78.3529 -81.9429 -7.64489 -0.102515 0.207853 -7.64487 -0.115534 0.200908 -7.64528 -0.176702 0.149963 -7.64528 -0.1508 0.175987 1.91118 7.94402 -11.0139 3.00185 23.1525 -11.7308 -0.0 0.0 -0.0 0.202544 17.6234 2.37473 19.5259 -16.3618 76.9855 0.763971 -20.7291 0.139728 -30.6727 -2.01815 3.31355 1.31585 13.3763 13.8913 -0.0 0.0 -0.0 13.5113 24.5217 -27.032 -11.5641 13.6554 -53.0032 1.23899 31.5387 -0.349897 -3.51801 0.137161 -0.428176 1.59729 -0.805597 -11.0553 0.0 0.0 0.0 -2.66367 16.6802 -13.7128 -61.2131 -2.33239 8.65771 22.7058 -19.7233 -3.42091 1.86588 -0.0 -0.0 -0.0 0.0 -0.0 -10.2267 17.0436 -9.12723 -3.9079 -0.141058 -0.583039 27.821 -1.7768 3.66239 -8.77565 0.0 0.0 0.0 0.0 0.0 
2949.85 730.051 -1477.17 63.8572 75.4511 -65.0454 -8.25661 0.174308 0.222556 -8.2566 0.159793 0.233197 -8.25584 0.0685414 0.274256 -8.25593 0.110995 0.25999 -0.0675852 9.81794 -8.62538 0.757641 24.4985 -8.41905 -0.0 0.0 -0.0 0.633966 19.4067 3.20615 21.6297 -16.4522 77.8428 0.740734 -20.15 0.131613 -28.9349 -1.85844 3.15818 1.19804 12.6057 12.8542 -0.0 0.0 -0.0 13.2699 24.4251 -26.4798 -8.71299 11.1159 -53.5272 1.09889 28.5611 -0.279713 -6.35941 0.266997 -0.767441 1.34306 -1.89792 -9.76827 0.0 0.0 0.0 -2.77673 22.093 -12.7424 -60.9684 -2.30545 8.63126 20.5192 -15.4829 -3.02546 1.49473 -0.0 -0.0 -0.0 0.0 -0.0 -9.91845 18.2405 -8.91205 -3.76246 -0.136523 -0.561178 23.5451 -4.7719 3.16229 -6.54461 0.0 0.0 0.0 0.0 0.0 
2946.57 732.67 -1473.84 57.5086 74.1701 -58.6744 -8.43545 0.200852 0.113752 -8.43547 0.193206 0.126303 -8.43502 0.13652 0.186127 -8.43503 0.164202 0.162231 -0.00725029 10.1271 -8.50373 0.836052 24.9483 -8.27512 -0.0 0.0 -0.0 0.77604 18.7514 3.35734 22.742 -15.4256 77.9705 0.69631 -19.031 0.116717 -27.3644 -1.71822 3.01368 1.23432 12.6961 13.1219 -0.0 0.0 -0.0 13.381 26.0126 -26.558 -11.0405 12.8002 -52.3593 1.11398 28.8906 -0.28697 -9.67151 0.439395 -1.15432 1.07559 -2.51227 -8.21429 0.0 0.0 0.0 -2.19734 23.0617 -12.7598 -58.6454 -2.05551 8.37452 21.2967 -16.0745 -3.14053 1.85826 -0.0 -0.0 -0.0 0.0 -0.0 -10.1177 20.7696 -8.41783 -3.31978 -0.12238 -0.494713 23.1949 -5.27095 3.11992 -5.2518 0.0 0.0 0.0 0.0 0.0 
2944.25 737.659 -1471.35 48.2275 72.3099 -48.9425 -8.55838 0.160906 -0.0457165 -8.55839 0.163489 -0.0353849 -8.55854 0.165446 0.0246634 -8.5585 0.167265 -0.00177539 -0.00974804 12.6057 -5.90217 0.785691 27.2648 -5.19554 -0.0 0.0 -0.0 0.853344 18.8604 3.48322 24.7205 -14.4046 78.4534 0.652077 -17.9016 0.102706 -25.1424 -1.52676 2.80286 1.24474 11.9047 12.9065 -0.0 0.0 -0.0 13.3146 26.2683 -26.3731 -11.2212 13.5234 -51.8428 1.03823 27.2165 -0.251339 -12.3395 0.594387 -1.45841 0.735942 -3.92309 -6.5119 0.0 0.0 0.0 -0.544985 25.3007 -13.1183 -52.8354 -1.47797 7.69045 22.9673 -10.8023 -3.24377 2.26978 -0.0 -0.0 -0.0 0.0 -0.0 -10.2063 22.3513 -8.25805 -2.57854 -0.0975467 -0.383665 23.915 -4.55241 3.20635 -4.2895 0.0 0.0 0.0 0.0 0.0 
